<svg xmlns="http://www.w3.org/2000/svg" viewBox="0 0 1200 675" width="1200" height="675" role="img">
<defs>
  <radialGradient id="g" cx="66%" cy="19%" r="105%">
    <stop offset="0%" stop-color="#6d4cff" stop-opacity=".42"/>
    <stop offset="55%" stop-color="#6d4cff" stop-opacity=".08"/>
    <stop offset="100%" stop-color="#141024" stop-opacity="0"/>
  </radialGradient>
  <filter id="h" color-interpolation-filters="sRGB">
    <feColorMatrix type="hueRotate" values="6"/>
  </filter>
  <marker id="a" viewBox="0 0 10 10" refX="9" refY="5" markerWidth="7" markerHeight="7" orient="auto">
    <path d="M0 0 L10 5 L0 10 z" fill="#b9aee8" fill-opacity=".6"/>
  </marker>
</defs>
<rect width="1200" height="675" fill="#141024"/>
<rect width="1200" height="675" fill="url(#g)"/>
<g filter="url(#h)">
<g opacity="0.95"><path d="M80 190 L380 132 L680 190 L380 248 Z" fill="#6d4cff" fill-opacity="0.16" stroke="#8b6dff" stroke-width="2"/><rect x="251.52" y="174" width="46" height="26" rx="4" fill="#8b6dff" fill-opacity="0.42"/><rect x="360.13" y="174" width="46" height="26" rx="4" fill="#8b6dff" fill-opacity="0.43"/><rect x="461.43" y="174" width="46" height="26" rx="4" fill="#8b6dff" fill-opacity="0.5"/></g><g opacity="0.79"><path d="M98 295 L380 237 L662 295 L380 353 Z" fill="#6d4cff" fill-opacity="0.22" stroke="#8b6dff" stroke-width="2"/><rect x="231.83" y="279" width="46" height="26" rx="4" fill="#8b6dff" fill-opacity="0.58"/><rect x="360.83" y="279" width="46" height="26" rx="4" fill="#8b6dff" fill-opacity="0.52"/><rect x="466.18" y="279" width="46" height="26" rx="4" fill="#8b6dff" fill-opacity="0.47"/></g><g opacity="0.63"><path d="M116 400 L380 342 L644 400 L380 458 Z" fill="#6d4cff" fill-opacity="0.28" stroke="#8b6dff" stroke-width="2"/><rect x="249.57" y="384" width="46" height="26" rx="4" fill="#8b6dff" fill-opacity="0.59"/><rect x="351.61" y="384" width="46" height="26" rx="4" fill="#8b6dff" fill-opacity="0.48"/><rect x="454.03" y="384" width="46" height="26" rx="4" fill="#8b6dff" fill-opacity="0.65"/></g><circle cx="880" cy="190" r="13" fill="none" stroke="#8b6dff" stroke-width="2.5"/><circle cx="880" cy="190" r="5" fill="#8b6dff"/><circle cx="880" cy="295" r="13" fill="none" stroke="#8b6dff" stroke-width="2.5"/><circle cx="880" cy="295" r="5" fill="#8b6dff"/><line x1="880" y1="203" x2="880" y2="282" stroke="#b9aee8" stroke-opacity=".45" stroke-width="2"/><circle cx="880" cy="400" r="13" fill="none" stroke="#8b6dff" stroke-width="2.5"/><circle cx="880" cy="400" r="5" fill="#8b6dff"/><line x1="880" y1="308" x2="880" y2="387" stroke="#b9aee8" stroke-opacity=".45" stroke-width="2"/>
</g>
</svg>
