<svg xmlns="http://www.w3.org/2000/svg" viewBox="0 0 1200 675" width="1200" height="675" role="img">
<defs>
  <radialGradient id="g" cx="25%" cy="3%" r="105%">
    <stop offset="0%" stop-color="#2f6bff" stop-opacity=".42"/>
    <stop offset="55%" stop-color="#2f6bff" stop-opacity=".08"/>
    <stop offset="100%" stop-color="#0e1626" stop-opacity="0"/>
  </radialGradient>
  <filter id="h" color-interpolation-filters="sRGB">
    <feColorMatrix type="hueRotate" values="-18"/>
  </filter>
  <marker id="a" viewBox="0 0 10 10" refX="9" refY="5" markerWidth="7" markerHeight="7" orient="auto">
    <path d="M0 0 L10 5 L0 10 z" fill="#a8c0e8" fill-opacity=".6"/>
  </marker>
</defs>
<rect width="1200" height="675" fill="#0e1626"/>
<rect width="1200" height="675" fill="url(#g)"/>
<g filter="url(#h)">
<g opacity="0.95"><path d="M80 190 L380 132 L680 190 L380 248 Z" fill="#2f6bff" fill-opacity="0.16" stroke="#4d8dff" stroke-width="2"/><rect x="235.36" y="174" width="46" height="26" rx="4" fill="#4d8dff" fill-opacity="0.45"/><rect x="350.97" y="174" width="46" height="26" rx="4" fill="#4d8dff" fill-opacity="0.5"/><rect x="470.71" y="174" width="46" height="26" rx="4" fill="#4d8dff" fill-opacity="0.5"/></g><g opacity="0.79"><path d="M98 295 L380 237 L662 295 L380 353 Z" fill="#2f6bff" fill-opacity="0.22" stroke="#4d8dff" stroke-width="2"/><rect x="248.17" y="279" width="46" height="26" rx="4" fill="#4d8dff" fill-opacity="0.5"/><rect x="348.87" y="279" width="46" height="26" rx="4" fill="#4d8dff" fill-opacity="0.65"/><rect x="466.1" y="279" width="46" height="26" rx="4" fill="#4d8dff" fill-opacity="0.51"/></g><g opacity="0.63"><path d="M116 400 L380 342 L644 400 L380 458 Z" fill="#2f6bff" fill-opacity="0.28" stroke="#4d8dff" stroke-width="2"/><rect x="236.8" y="384" width="46" height="26" rx="4" fill="#4d8dff" fill-opacity="0.37"/><rect x="361.11" y="384" width="46" height="26" rx="4" fill="#4d8dff" fill-opacity="0.46"/><rect x="454.15" y="384" width="46" height="26" rx="4" fill="#4d8dff" fill-opacity="0.5"/></g><g opacity="0.47"><path d="M134 505 L380 447 L626 505 L380 563 Z" fill="#2f6bff" fill-opacity="0.34" stroke="#4d8dff" stroke-width="2"/><rect x="241.9" y="489" width="46" height="26" rx="4" fill="#4d8dff" fill-opacity="0.74"/><rect x="359.98" y="489" width="46" height="26" rx="4" fill="#4d8dff" fill-opacity="0.74"/><rect x="474.53" y="489" width="46" height="26" rx="4" fill="#4d8dff" fill-opacity="0.36"/></g><circle cx="880" cy="190" r="13" fill="none" stroke="#4d8dff" stroke-width="2.5"/><circle cx="880" cy="190" r="5" fill="#4d8dff"/><circle cx="880" cy="295" r="13" fill="none" stroke="#4d8dff" stroke-width="2.5"/><circle cx="880" cy="295" r="5" fill="#4d8dff"/><line x1="880" y1="203" x2="880" y2="282" stroke="#a8c0e8" stroke-opacity=".45" stroke-width="2"/><circle cx="880" cy="400" r="13" fill="none" stroke="#4d8dff" stroke-width="2.5"/><circle cx="880" cy="400" r="5" fill="#4d8dff"/><line x1="880" y1="308" x2="880" y2="387" stroke="#a8c0e8" stroke-opacity=".45" stroke-width="2"/><circle cx="880" cy="505" r="13" fill="none" stroke="#4d8dff" stroke-width="2.5"/><circle cx="880" cy="505" r="5" fill="#4d8dff"/><line x1="880" y1="413" x2="880" y2="492" stroke="#a8c0e8" stroke-opacity=".45" stroke-width="2"/>
</g>
</svg>
